<mxfile host="65bd71144e">
    <diagram id="oL3rBXWVwnSEOE7bD1_r" name="Page-1">
        <mxGraphModel dx="680" dy="518" grid="1" gridSize="10" guides="1" tooltips="1" connect="1" arrows="1" fold="1" page="1" pageScale="1" pageWidth="850" pageHeight="1100" math="0" shadow="0">
            <root>
                <mxCell id="0"/>
                <mxCell id="1" parent="0"/>
                <mxCell id="2" value="Pick a subreddit" style="rounded=0;whiteSpace=wrap;html=1;" vertex="1" parent="1">
                    <mxGeometry x="365" y="30" width="120" height="60" as="geometry"/>
                </mxCell>
                <mxCell id="36" style="edgeStyle=none;html=1;fontSize=11;" edge="1" parent="1" source="3" target="16">
                    <mxGeometry relative="1" as="geometry"/>
                </mxCell>
                <mxCell id="3" value="grab the contraversial 50 submissions" style="rounded=0;whiteSpace=wrap;html=1;align=left;verticalAlign=top;" vertex="1" parent="1">
                    <mxGeometry x="365" y="130" width="120" height="40" as="geometry"/>
                </mxCell>
                <mxCell id="17" style="edgeStyle=none;html=1;" edge="1" parent="1" source="16" target="33">
                    <mxGeometry relative="1" as="geometry">
                        <mxPoint x="600" y="279.9999999999999" as="targetPoint"/>
                    </mxGeometry>
                </mxCell>
                <mxCell id="16" value="For each submission" style="rounded=0;whiteSpace=wrap;html=1;align=left;horizontal=1;verticalAlign=top;" vertex="1" parent="1">
                    <mxGeometry x="365" y="220" width="120" height="30" as="geometry"/>
                </mxCell>
                <mxCell id="35" style="edgeStyle=none;html=1;fontSize=11;" edge="1" parent="1" source="33" target="34">
                    <mxGeometry relative="1" as="geometry"/>
                </mxCell>
                <mxCell id="33" value="&lt;h1&gt;reddit_data&lt;/h1&gt;&lt;p style=&quot;line-height: 90%; font-size: 11px;&quot;&gt;&lt;font style=&quot;font-size: 11px;&quot;&gt;author: not_sure&lt;/font&gt;&lt;/p&gt;&lt;p style=&quot;line-height: 90%; font-size: 11px;&quot;&gt;&lt;font style=&quot;font-size: 11px;&quot;&gt;is_original_content: bool&lt;/font&gt;&lt;/p&gt;&lt;p style=&quot;line-height: 90%; font-size: 11px;&quot;&gt;&lt;font style=&quot;font-size: 11px;&quot;&gt;type (submission/comment): enum&lt;/font&gt;&lt;/p&gt;&lt;p style=&quot;line-height: 90%; font-size: 11px;&quot;&gt;&lt;font style=&quot;font-size: 11px;&quot;&gt;num_comments: int&lt;/font&gt;&lt;/p&gt;&lt;p style=&quot;line-height: 90%; font-size: 11px;&quot;&gt;&lt;font style=&quot;font-size: 11px;&quot;&gt;score: float&lt;/font&gt;&lt;/p&gt;&lt;p style=&quot;line-height: 90%; font-size: 11px;&quot;&gt;&lt;font style=&quot;font-size: 11px;&quot;&gt;subreddit_name: str&lt;/font&gt;&lt;/p&gt;&lt;p style=&quot;line-height: 90%; font-size: 11px;&quot;&gt;&lt;font style=&quot;font-size: 11px;&quot;&gt;subreddit_id: str&lt;/font&gt;&lt;/p&gt;&lt;p style=&quot;line-height: 90%; font-size: 11px;&quot;&gt;&lt;font style=&quot;font-size: 11px;&quot;&gt;title: str&lt;/font&gt;&lt;/p&gt;&lt;p style=&quot;line-height: 90%; font-size: 11px;&quot;&gt;&lt;font style=&quot;font-size: 11px;&quot;&gt;ups: int&lt;/font&gt;&lt;/p&gt;&lt;p style=&quot;line-height: 90%; font-size: 11px;&quot;&gt;&lt;font style=&quot;font-size: 11px;&quot;&gt;upvote_ratio: float&lt;/font&gt;&lt;/p&gt;&lt;p style=&quot;line-height: 90%; font-size: 11px;&quot;&gt;&lt;font style=&quot;font-size: 11px;&quot;&gt;body: str&lt;/font&gt;&lt;/p&gt;&lt;p style=&quot;line-height: 90%; font-size: 11px;&quot;&gt;&lt;font style=&quot;font-size: 11px;&quot;&gt;down: int&lt;/font&gt;&lt;/p&gt;&lt;p style=&quot;line-height: 90%; font-size: 11px;&quot;&gt;&lt;font style=&quot;font-size: 11px;&quot;&gt;likes: int&lt;/font&gt;&lt;/p&gt;" style="text;html=1;strokeColor=none;fillColor=none;spacing=5;spacingTop=-20;whiteSpace=wrap;overflow=hidden;rounded=0;" vertex="1" parent="1">
                    <mxGeometry x="605" y="160" width="190" height="340" as="geometry"/>
                </mxCell>
                <mxCell id="40" style="edgeStyle=none;html=1;fontSize=11;" edge="1" parent="1" source="34" target="37">
                    <mxGeometry relative="1" as="geometry"/>
                </mxCell>
                <mxCell id="41" style="edgeStyle=none;html=1;fontSize=11;" edge="1" parent="1" source="34" target="39">
                    <mxGeometry relative="1" as="geometry"/>
                </mxCell>
                <mxCell id="34" value="for each $(select uniq author from reddit_data)" style="rounded=0;whiteSpace=wrap;html=1;fontSize=11;align=left;verticalAlign=top;" vertex="1" parent="1">
                    <mxGeometry x="365" y="380" width="120" height="40" as="geometry"/>
                </mxCell>
                <mxCell id="37" value="collect contraversial n submissions." style="rounded=0;whiteSpace=wrap;html=1;fontSize=11;align=left;verticalAlign=top;" vertex="1" parent="1">
                    <mxGeometry x="285" y="460" width="120" height="40" as="geometry"/>
                </mxCell>
                <mxCell id="39" value="collect contraversial n comments." style="rounded=0;whiteSpace=wrap;html=1;fontSize=11;align=left;verticalAlign=top;" vertex="1" parent="1">
                    <mxGeometry x="445" y="460" width="120" height="40" as="geometry"/>
                </mxCell>
                <mxCell id="42" value="&lt;p style=&quot;line-height: 9.9px;&quot;&gt;submissions::&lt;/p&gt;&lt;p style=&quot;line-height: 9.9px;&quot;&gt;author: not_sure&lt;/p&gt;&lt;p style=&quot;line-height: 9.9px;&quot;&gt;is_original_content: bool&lt;/p&gt;&lt;p style=&quot;line-height: 9.9px;&quot;&gt;type: submission&lt;/p&gt;&lt;p style=&quot;line-height: 9.9px;&quot;&gt;num_comments: int&lt;/p&gt;&lt;p style=&quot;line-height: 9.9px;&quot;&gt;score: float&lt;/p&gt;&lt;p style=&quot;line-height: 9.9px;&quot;&gt;subreddit_name: str&lt;/p&gt;&lt;p style=&quot;line-height: 9.9px;&quot;&gt;subreddit_id: str&lt;/p&gt;&lt;p style=&quot;line-height: 9.9px;&quot;&gt;title: str&lt;/p&gt;&lt;p style=&quot;line-height: 9.9px;&quot;&gt;ups: int&lt;/p&gt;&lt;p style=&quot;line-height: 9.9px;&quot;&gt;upvote_ratio: float&lt;/p&gt;" style="text;html=1;strokeColor=none;fillColor=none;align=left;verticalAlign=top;whiteSpace=wrap;rounded=0;fontSize=11;" vertex="1" parent="1">
                    <mxGeometry x="205" y="520" width="200" height="230" as="geometry"/>
                </mxCell>
                <mxCell id="43" value="&lt;p style=&quot;line-height: 9.9px;&quot;&gt;comments::&lt;/p&gt;&lt;p style=&quot;line-height: 9.9px;&quot;&gt;author: not_sure&lt;/p&gt;&lt;p style=&quot;line-height: 9.9px;&quot;&gt;type: comment&lt;/p&gt;&lt;p style=&quot;line-height: 9.9px;&quot;&gt;body: str&lt;/p&gt;&lt;p style=&quot;line-height: 9.9px;&quot;&gt;down: int&lt;/p&gt;&lt;p style=&quot;line-height: 9.9px;&quot;&gt;likes: float&lt;/p&gt;&lt;p style=&quot;line-height: 9.9px;&quot;&gt;subreddit_name: str&lt;/p&gt;&lt;p style=&quot;line-height: 9.9px;&quot;&gt;subreddit_id: str&lt;/p&gt;" style="text;html=1;strokeColor=none;fillColor=none;align=left;verticalAlign=top;whiteSpace=wrap;rounded=0;fontSize=11;" vertex="1" parent="1">
                    <mxGeometry x="470" y="530" width="110" height="160" as="geometry"/>
                </mxCell>
            </root>
        </mxGraphModel>
    </diagram>
</mxfile>